<?xml version="1.0" encoding="utf-8"?>
<!-- Generator: Adobe Illustrator 16.0.0, SVG Export Plug-In . SVG Version: 6.00 Build 0)  -->
<!DOCTYPE svg PUBLIC "-//W3C//DTD SVG 1.1//EN" "http://www.w3.org/Graphics/SVG/1.1/DTD/svg11.dtd">
<svg version="1.1" id="Layer_2" xmlns="http://www.w3.org/2000/svg" xmlns:xlink="http://www.w3.org/1999/xlink" x="0px" y="0px"
	 width="817.834px" height="300px" viewBox="0 0 817.834 300" enable-background="new 0 0 817.834 300" xml:space="preserve">
<title>logo</title>
<polygon fill="#FFFFFF" points="100.695,41.335 176.998,41.335 101.696,258.483 26.143,258.483 "/>
<polyline fill="#C4C4C4" points="5.75,197.192 47.186,197.192 26.143,258.483 "/>
<g>
	<polygon fill="#FFFFFF" points="251.048,41.335 327.352,41.335 252.049,258.483 176.497,258.483 	"/>
	<polyline fill="#C4C4C4" points="184.374,64.349 146.848,173.175 176.497,258.483 214.259,148.49 	"/>
</g>
<polygon fill="#FFFFFF" points="454.776,41.335 531.081,41.335 455.779,258.483 380.226,258.483 "/>
<polyline fill="#C4C4C4" points="334.104,64.349 296.577,173.175 326.226,258.483 363.989,148.49 "/>
<g>
	<polygon fill="#FFFFFF" points="605.632,41.335 681.936,41.335 606.634,258.483 531.081,258.483 	"/>
	<polyline fill="#C4C4C4" points="538.958,64.349 501.432,173.175 531.081,258.483 568.844,148.49 	"/>
</g>
<polyline fill="#C4C4C4" points="689.438,64.349 651.161,172.425 681.936,257.234 702.572,196.442 735.595,196.066 "/>
<polygon fill="#FFFFFF" points="702.572,196.442 778.75,196.442 756.609,257.234 681.936,257.234 "/>
</svg>
